<svg width="22" height="22" viewBox="0 0 22 22" fill="none" xmlns="http://www.w3.org/2000/svg">
<g clip-path="url(#clip0_40_5)">
<path d="M22.05 4.95752C22.0525 4.94912 22.0529 4.94 22.0507 4.93104C22.023 4.81874 21.9958 4.70615 21.9687 4.59347C21.9121 4.35847 21.8554 4.12309 21.7929 3.88915L21.7929 3.88904C21.6278 3.27644 21.3327 2.72792 20.9631 2.21995L20.9631 2.21994C20.4757 1.55051 19.8605 1.0198 19.1374 0.625755L19.1373 0.625692C18.5897 0.329175 18.0025 0.120974 17.3799 0.0341903L22.05 4.95752ZM22.05 4.95752V17.0999C22.05 17.1102 22.0468 17.1202 22.041 17.1286C22.0387 17.1317 22.0365 17.1349 22.0342 17.1379C22.0322 17.1407 22.0301 17.1434 22.0283 17.1459C22.0242 17.1513 22.0208 17.156 22.0177 17.1606C22.0114 17.1697 22.0087 17.1755 22.0076 17.1793C21.974 17.3106 21.943 17.4437 21.9119 17.5773C21.8484 17.8497 21.7845 18.1243 21.6977 18.3903C21.461 19.1222 21.0422 19.7509 20.5191 20.3043C20.01 20.8459 19.4101 21.2661 18.7325 21.5692C18.1061 21.85 17.4466 22.0392 16.7572 22.0414C14.439 22.0495 12.1208 22.0491 9.80264 22.0488C8.4122 22.0486 7.02181 22.0484 5.63151 22.05H5.63145C5.11154 22.05 4.60051 22.0069 4.09503 21.8745M22.05 4.95752L4.09503 21.8745M4.09503 21.8745C3.10287 21.6188 2.25386 21.1096 1.5398 20.3911L1.53974 20.3911C1.06127 19.9082 0.675544 19.3492 0.406787 18.7141L0.406761 18.7141C0.163489 18.137 -0.0370882 17.5308 -0.039269 16.8983C-0.0459857 14.9458 -0.0456947 12.9923 -0.0454036 11.0387C-0.0451368 9.24792 -0.0448699 7.45699 -0.0499998 5.66648L-0.0500002 5.66634C-0.05 4.89308 0.0601695 4.15255 0.34626 3.43075C0.63213 2.7095 1.05674 2.07246 1.60922 1.53943L1.60937 1.53928C1.95816 1.20563 2.36067 0.913529 2.77792 0.673536L2.77796 0.673512C3.13024 0.471335 3.52267 0.335707 3.90461 0.20371C3.93759 0.192308 3.97051 0.180934 4.00331 0.169546L4.00347 0.16949C4.20325 0.100901 4.4112 0.0563607 4.6155 0.0126017C4.70814 -0.00723962 4.80002 -0.0269203 4.89006 -0.0486094L4.90177 -0.0514304V-0.05H4.92551H4.94925H4.97299H4.99673H5.02047H5.04422H5.06796H5.0917H5.11544H5.13918H5.16293H5.18667H5.21041H5.23415H5.25789H5.28164H5.30538H5.32912H5.35286H5.37661H5.40035H5.42409H5.44783H5.47158H5.49532H5.51906H5.54281H5.56655H5.59029H5.61403H5.63778H5.66152H5.68526H5.70901H5.73275H5.75649H5.78024H5.80398H5.82772H5.85147H5.87521H5.89895H5.9227H5.94644H5.97018H5.99393H6.01767H6.04141H6.06516H6.0889H6.11265H6.13639H6.16013H6.18388H6.20762H6.23137H6.25511H6.27885H6.3026H6.32634H6.35009H6.37383H6.39758H6.42132H6.44506H6.46881H6.49255H6.5163H6.54004H6.56379H6.58753H6.61128H6.63502H6.65876H6.68251H6.70625H6.73H6.75374H6.77749H6.80123H6.82498H6.84872H6.87247H6.89621H6.91996H6.9437H6.96745H6.99119H7.01494H7.03868H7.06243H7.08617H7.10992H7.13367H7.15741H7.18116H7.2049H7.22865H7.25239H7.27614H7.29988H7.32363H7.34737H7.37112H7.39487H7.41861H7.44236H7.4661H7.48985H7.51359H7.53734H7.56109H7.58483H7.60858H7.63232H7.65607H7.67982H7.70356H7.72731H7.75105H7.7748H7.79855H7.82229H7.84604H7.86979H7.89353H7.91728H7.94102H7.96477H7.98852H8.01226H8.03601H8.05976H8.0835H8.10725H8.13099H8.15474H8.17849H8.20224H8.22598H8.24973H8.27347H8.29722H8.32097H8.34471H8.36846H8.39221H8.41595H8.4397H8.46345H8.4872H8.51094H8.53469H8.55844H8.58218H8.60593H8.62968H8.65342H8.67717H8.70092H8.72466H8.74841H8.77216H8.79591H8.81965H8.8434H8.86715H8.89089H8.91464H8.93839H8.96214H8.98588H9.00963H9.03338H9.05712H9.08087H9.10462H9.12837H9.15211H9.17586H9.19961H9.22336H9.2471H9.27085H9.2946H9.31835H9.34209H9.36584H9.38959H9.41333H9.43708H9.46083H9.48458H9.50832H9.53207H9.55582H9.57957H9.60331H9.62706H9.65081H9.67456H9.69831H9.72205H9.7458H9.76955H9.79329H9.81704H9.84079H9.86454H9.88829H9.91203H9.93578H9.95953H9.98328H10.007H10.0308H10.0545H10.0783H10.102H10.1258H10.1495H10.1733H10.197H10.2208H10.2445H10.2682H10.292H10.3157H10.3395H10.3632H10.387H10.4107H10.4345H10.4582H10.482H10.5057H10.5295H10.5532H10.577H10.6007H10.6245H10.6482H10.672H10.6957H10.7195H10.7432H10.767H10.7907H10.8144H10.8382H10.8619H10.8857H10.9094H10.9332H10.9569H10.9807H11.0044H11.0282H11.0519H11.0757H11.0994H11.1232H11.1469H11.1707H11.1944H11.2182H11.2419H11.2657H11.2894H11.3132H11.3369H11.3607H11.3844H11.4081H11.4319H11.4556H11.4794H11.5031H11.5269H11.5506H11.5744H11.5981H11.6219H11.6456H11.6694H11.6931H11.7169H11.7406H11.7644H11.7881H11.8119H11.8356H11.8594H11.8831H11.9068H11.9306H11.9543H11.9781H12.0018H12.0256H12.0493H12.0731H12.0968H12.1206H12.1443H12.1681H12.1918H12.2156H12.2393H12.2631H12.2868H12.3106H12.3343H12.3581H12.3818H12.4056H12.4293H12.453H12.4768H12.5005H12.5243H12.548H12.5718H12.5955H12.6193H12.643H12.6668H12.6905H12.7143H12.738H12.7618H12.7855H12.8093H12.833H12.8568H12.8805H12.9042H12.928H12.9517H12.9755H12.9992H13.023H13.0467H13.0705H13.0942H13.118H13.1417H13.1655H13.1892H13.213H13.2367H13.2605H13.2842H13.3079H13.3317H13.3554H13.3792H13.4029H13.4267H13.4504H13.4742H13.4979H13.5217H13.5454H13.5692H13.5929H13.6167H13.6404H13.6641H13.6879H13.7116H13.7354H13.7591H13.7829H13.8066H13.8304H13.8541H13.8779H13.9016H13.9254H13.9491H13.9729H13.9966H14.0203H14.0441H14.0678H14.0916H14.1153H14.1391H14.1628H14.1866H14.2103H14.2341H14.2578H14.2816H14.3053H14.329H14.3528H14.3765H14.4003H14.424H14.4478H14.4715H14.4953H14.519H14.5428H14.5665H14.5903H14.614H14.6377H14.6615H14.6852H14.709H14.7327H14.7565H14.7802H14.804H14.8277H14.8514H14.8752H14.8989H14.9227H14.9464H14.9702H14.9939H15.0177H15.0414H15.0652H15.0889H15.1126H15.1364H15.1601H15.1839H15.2076H15.2314H15.2551H15.2789H15.3026H15.3264H15.3501H15.3738H15.3976H15.4213H15.4451H15.4688H15.4926H15.5163H15.5401H15.5638H15.5875H15.6113H15.635H15.6588H15.6825H15.7063H15.73H15.7537H15.7775H15.8012H15.825H15.8487H15.8725H15.8962H15.92H15.9437H15.9674H15.9912H16.0149H16.0387H16.0624H16.0862H16.1099H16.1336H16.1574H16.1811H16.2049H16.2286H16.2524H16.2761H16.2999H16.3236H16.3473H16.3711H16.3948H16.4186H16.4423H16.466H16.4898H16.5135H16.5373H16.561H16.5848H16.6085H16.6322H16.656H16.6797H16.7035H16.7272H16.751H16.7747H16.7984H16.8222H16.8459H16.8697H16.8934H16.9172H16.9409H16.9646H16.9884H17.0121H17.0359H17.0596H17.0729L17.0724 -0.0483277C17.1091 -0.0386094 17.1459 -0.0271351 17.1815 -0.0160652C17.198 -0.0109534 17.2141 -0.00592778 17.2299 -0.00120115C17.2809 0.0141354 17.33 0.0272083 17.3798 0.0341861L4.09503 21.8745ZM1.90507 10.9842C1.90434 10.9812 1.90335 10.9782 1.90211 10.9754L1.8495 9.37434C1.84607 7.95375 1.84264 6.53317 1.86284 5.11259L1.91284 5.11337C1.92334 4.44756 2.21314 3.84823 2.62571 3.31226L2.62573 3.31223C3.18276 2.58781 3.91049 2.13711 4.80243 1.95277C4.99533 1.91293 5.19981 1.90015 5.40181 1.90015H5.40184C6.23224 1.89967 7.06262 1.89877 7.89298 1.89787C10.799 1.89471 13.7049 1.89156 16.6108 1.90658C17.4624 1.91081 18.2235 2.22747 18.8741 2.80823L18.8742 2.80827C19.5114 3.37566 19.8904 4.076 20.0537 4.9051C20.0831 5.06078 20.0979 5.22293 20.0979 5.38088C20.0984 6.2161 20.0993 7.05127 20.1002 7.88642C20.1033 10.8095 20.1065 13.7324 20.0914 16.6554C20.0872 17.487 19.7604 18.2248 19.2024 18.8657C18.6627 19.4837 17.9856 19.8586 17.1983 20.0454C16.9664 20.0997 16.7186 20.1041 16.4716 20.1041C15.841 20.1045 15.2104 20.105 14.5798 20.1056C11.424 20.1083 8.26747 20.1109 5.11241 20.0913C4.4537 20.0871 3.85252 19.7912 3.31621 19.3805C2.5287 18.775 2.07756 17.9688 1.90566 17.0012C1.88931 16.905 1.8871 16.8052 1.88922 16.702C1.89004 16.6621 1.89156 16.6209 1.89309 16.5792C1.89543 16.5153 1.89782 16.4503 1.89782 16.3873V16.3768V16.3662V16.3557V16.3452V16.3346V16.3241V16.3135V16.303V16.2925V16.2819V16.2714V16.2609V16.2503V16.2398V16.2292V16.2187V16.2082V16.1976V16.1871V16.1765V16.166V16.1555V16.1449V16.1344V16.1239V16.1133V16.1028V16.0922V16.0817V16.0712V16.0606V16.0501V16.0396V16.029V16.0185V16.0079V15.9974V15.9869V15.9763V15.9658V15.9553V15.9447V15.9342V15.9237V15.9131V15.9026V15.892V15.8815V15.871V15.8604V15.8499V15.8394V15.8288V15.8183V15.8078V15.7972V15.7867V15.7761V15.7656V15.7551V15.7445V15.734V15.7235V15.7129V15.7024V15.6919V15.6813V15.6708V15.6602V15.6497V15.6392V15.6286V15.6181V15.6076V15.597V15.5865V15.576V15.5654V15.5549V15.5444V15.5338V15.5233V15.5128V15.5022V15.4917V15.4811V15.4706V15.4601V15.4495V15.439V15.4285V15.4179V15.4074V15.3969V15.3863V15.3758V15.3653V15.3547V15.3442V15.3337V15.3231V15.3126V15.3021V15.2915V15.281V15.2705V15.2599V15.2494V15.2389V15.2283V15.2178V15.2072V15.1967V15.1862V15.1756V15.1651V15.1546V15.144V15.1335V15.123V15.1124V15.1019V15.0914V15.0808V15.0703V15.0598V15.0492V15.0387V15.0282V15.0176V15.0071V14.9966V14.986V14.9755V14.965V14.9544V14.9439V14.9334V14.9228V14.9123V14.9018V14.8912V14.8807V14.8702V14.8596V14.8491V14.8386V14.8281V14.8175V14.807V14.7965V14.7859V14.7754V14.7649V14.7543V14.7438V14.7333V14.7227V14.7122V14.7017V14.6911V14.6806V14.6701V14.6595V14.649V14.6385V14.6279V14.6174V14.6069V14.5963V14.5858V14.5753V14.5647V14.5542V14.5437V14.5331V14.5226V14.5121V14.5016V14.491V14.4805V14.47V14.4594V14.4489V14.4384V14.4278V14.4173V14.4068V14.3962V14.3857V14.3752V14.3646V14.3541V14.3436V14.3331V14.3225V14.312V14.3015V14.2909V14.2804V14.2699V14.2593V14.2488V14.2383V14.2277V14.2172V14.2067V14.1962V14.1856V14.1751V14.1646V14.154V14.1435V14.133V14.1224V14.1119V14.1014V14.0908V14.0803V14.0698V14.0593V14.0487V14.0382V14.0277V14.0171V14.0066V13.9961V13.9855V13.975V13.9645V13.954V13.9434V13.9329V13.9224V13.9118V13.9013V13.8908V13.8802V13.8697V13.8592V13.8487V13.8381V13.8276V13.8171V13.8065V13.796V13.7855V13.7749V13.7644V13.7539V13.7434V13.7328V13.7223V13.7118V13.7012V13.6907V13.6802V13.6696V13.6591V13.6486V13.6381V13.6275V13.617V13.6065V13.5959V13.5854V13.5749V13.5644V13.5538V13.5433V13.5328V13.5222V13.5117V13.5012V13.4907V13.4801V13.4696V13.4591V13.4485V13.438V13.4275V13.417V13.4064V13.3959V13.3854V13.3748V13.3643V13.3538V13.3432V13.3327V13.3222V13.3117V13.3011V13.2906V13.2801V13.2695V13.259V13.2485V13.238V13.2274V13.2169V13.2064V13.1958V13.1853V13.1748V13.1643V13.1537V13.1432V13.1327V13.1222V13.1116V13.1011V13.0906V13.08V13.0695V13.059V13.0485V13.0379V13.0274V13.0169V13.0063V12.9958V12.9853V12.9748V12.9642V12.9537V12.9432V12.9326V12.9221V12.9116V12.9011V12.8905V12.88V12.8695V12.859V12.8484V12.8379V12.8274V12.8168V12.8063V12.7958V12.7853V12.7747V12.7642V12.7537V12.7431V12.7326V12.7221V12.7116V12.701V12.6905V12.68V12.6695V12.6589V12.6484V12.6379V12.6273V12.6168V12.6063V12.5958V12.5852V12.5747V12.5642V12.5537V12.5431V12.5326V12.5221V12.5115V12.501V12.4905V12.48V12.4694V12.4589V12.4484V12.4379V12.4273V12.4168V12.4063V12.3957V12.3852V12.3747V12.3642V12.3536V12.3431V12.3326V12.3221V12.3115V12.301V12.2905V12.2799V12.2694V12.2589V12.2484V12.2378V12.2273V12.2168V12.2063V12.1957V12.1852V12.1747V12.1641V12.1536V12.1431V12.1326V12.122V12.1115V12.101V12.0905V12.0799V12.0694V12.0589V12.0484V12.0378V12.0273V12.0168V12.0062V11.9957V11.9852V11.9747V11.9641V11.9536V11.9431V11.9326V11.922V11.9115V11.901V11.8905V11.8799V11.8694V11.8589V11.8483V11.8378V11.8273V11.8168V11.8062V11.7957V11.7852V11.7747V11.7641V11.7536V11.7431V11.7326V11.722V11.7115V11.701V11.6904V11.6799V11.6694V11.6589V11.6483V11.6378V11.6273V11.6168V11.6062V11.5957V11.5852V11.5747V11.5641V11.5536V11.5431V11.5326V11.522V11.5115V11.501V11.4904V11.4799V11.4694V11.4589V11.4483V11.4378V11.4273V11.4168V11.4062V11.3957V11.3852V11.3747V11.3641V11.3536V11.3431V11.3325V11.322V11.3115V11.301V11.2904V11.2799V11.2694V11.2589V11.2483V11.2378V11.2273V11.2168V11.2062V11.1957V11.1852V11.1747V11.1641V11.1536V11.1431V11.1325V11.122V11.1115V11.101V11.0904V11.0799V11.0694V11.0589V11.0483V11.0378V11.0273V11.0237C1.90545 11.0124 1.90837 10.9982 1.90507 10.9842Z" fill="white" stroke="white" stroke-width="0.1" stroke-linejoin="round"/>
<path d="M5.45278 11.0157C5.40807 13.9876 7.95455 16.7179 11.2635 16.5425C11.2635 16.5425 11.2635 16.5425 11.2635 16.5425L11.2609 16.4926M5.45278 11.0157L15.1656 14.6541M5.45278 11.0157C5.45278 11.0152 5.45279 11.0148 5.4528 11.0143C5.45321 10.9871 5.47539 10.9652 5.50259 10.9651M5.45278 11.0157L5.50259 10.9651M11.2609 16.4926C12.8061 16.411 14.1066 15.7757 15.1282 14.6209M11.2609 16.4926C8.00094 16.6654 5.48756 13.9917 5.50226 11.0672L11.2609 16.4926ZM15.1282 14.6209L15.1656 14.6541M15.1282 14.6209L15.1656 14.6541C15.1656 14.6541 15.1656 14.6541 15.1656 14.6541M15.1282 14.6209C16.1862 13.4254 16.6047 12.0024 16.4588 10.4227M15.1656 14.6541C16.2335 13.4475 16.6557 12.0105 16.5086 10.4181M16.4588 10.4227L16.5086 10.4181M16.4588 10.4227C16.2292 7.92436 14.1023 5.411 10.7351 5.50758C7.95229 5.58655 5.50479 7.90444 5.50259 10.9651M16.4588 10.4227L16.5086 10.4181C16.5086 10.4181 16.5086 10.4181 16.5086 10.4181M16.5086 10.4181L5.50259 10.9651M10.9399 14.601L10.9399 14.601H10.9389H10.9368H10.9367C8.92873 14.6031 7.36001 12.9503 7.37271 10.994C7.38756 9.00503 8.89035 7.46899 10.8248 7.40126C13.0228 7.32503 14.5361 9.01828 14.5996 10.8687L14.5996 10.8688C14.6737 12.9708 12.9571 14.6391 10.9399 14.601ZM10.9389 14.651C12.9842 14.6896 14.7247 12.9983 14.6496 10.867L10.9389 14.651Z" fill="white" stroke="white" stroke-width="0.1" stroke-linejoin="round"/>
<path d="M17.0341 6.45903L17.034 6.45904C16.0987 6.50347 15.5223 5.79467 15.5201 5.03345L17.0341 6.45903ZM17.0341 6.45903C17.4251 6.43903 17.7597 6.27366 17.9944 5.99341C18.2287 5.71354 18.3608 5.32241 18.3542 4.85444M17.0341 6.45903L18.3542 4.85444M18.3542 4.85444C18.3508 4.58825 18.2009 4.2689 17.9541 4.02565M18.3542 4.85444L17.9541 4.02565M17.9541 4.02565C17.7068 3.78191 17.3568 3.60929 16.9471 3.64385M17.9541 4.02565L16.9471 3.64385M16.9471 3.64385C16.0138 3.59463 15.5179 4.36558 15.5201 5.03343L16.9471 3.64385Z" fill="white" stroke="white" stroke-width="0.1" stroke-linejoin="round"/>
</g>
<defs>
<clipPath id="clip0_40_5">
<rect width="22" height="22" fill="white"/>
</clipPath>
</defs>
</svg>
