<svg width="18" height="26" viewBox="0 0 18 26" fill="none" xmlns="http://www.w3.org/2000/svg">
<g clip-path="url(#clip0_6_34)">
<path d="M8.7762 26.0002C8.50574 25.7411 8.21279 25.5024 7.96968 25.2172C7.60988 24.7958 7.27924 24.3464 6.9474 23.9001C6.33962 23.0828 5.713 22.2781 5.14411 21.4321C4.42572 20.3633 3.73589 19.2722 3.07341 18.1639C2.22556 16.7449 1.46705 15.2712 0.923084 13.6938C0.619802 12.814 0.356633 11.9133 0.154243 11.0023C0.026001 10.4237 -0.0147202 9.80808 0.00412095 9.21287C0.0466655 7.85631 0.325029 6.55131 0.906066 5.32207C1.31692 4.45377 1.81895 3.6625 2.45651 2.9578C3.42349 1.88834 4.54484 1.08051 5.87466 0.579519C6.71158 0.26441 7.55943 0.0753447 8.44922 0.0186888C9.6271 -0.0564281 10.7643 0.105901 11.8807 0.482758C12.9346 0.838609 13.8858 1.40135 14.7355 2.13278C15.6775 2.94379 16.433 3.92859 16.9989 5.06425C17.4425 5.95483 17.758 6.89889 17.8868 7.89069C17.9774 8.58584 18.0309 9.30136 17.9822 9.99841C17.8996 11.178 17.6376 12.3309 17.2031 13.4277C16.8591 14.296 16.5266 15.1758 16.0999 16.0001C15.4648 17.2287 14.7811 18.4325 14.0621 19.6096C13.4464 20.6166 12.7705 21.5862 12.0856 22.5442C11.496 23.3686 10.8621 24.1586 10.2337 24.9511C9.97596 25.2764 9.68362 25.5712 9.40222 25.8748C9.35177 25.9289 9.27701 25.9588 9.21381 25.9996H8.77681L8.7762 26.0002ZM4.50291 9.41148C4.39594 11.842 6.61068 14.4233 9.41923 14.1171C11.5519 13.8841 13.5193 12.0457 13.5284 9.38475C13.5369 6.95427 11.6078 4.45695 8.54403 4.69949C6.49825 4.86182 4.45611 6.80404 4.50291 9.41085V9.41148Z" fill="#B88D57"/>
</g>
<defs>
<clipPath id="clip0_6_34">
<rect width="18" height="26" fill="white"/>
</clipPath>
</defs>
</svg>
