<svg width="22" height="15" viewBox="0 0 22 15" fill="none" xmlns="http://www.w3.org/2000/svg">
<g clip-path="url(#clip0_33_204)">
<path d="M21.9999 13.4578C21.9586 13.5547 21.913 13.6516 21.876 13.7506C21.7956 13.9635 21.7761 13.9719 21.6218 13.816C21.4328 13.6284 21.2568 13.4304 21.0656 13.245C19.1556 11.3887 17.2435 9.53236 15.3293 7.67606C15.275 7.62338 15.2098 7.57703 15.1055 7.49275C15.3228 7.29679 15.5227 7.13033 15.7073 6.95124C17.5086 5.2045 19.3099 3.45777 21.109 1.70682C21.2894 1.53194 21.4632 1.34862 21.6327 1.1632C21.763 1.01993 21.8239 1.07892 21.8717 1.2222C21.913 1.3423 21.9564 1.4603 21.9977 1.57829V13.4514L21.9999 13.4578Z" fill="#B88D57"/>
<path d="M1.12546 0.118094C1.40576 0.0801674 1.68606 0.0064211 1.96635 0.0064211C5.21692 -0.00200705 8.46749 9.99881e-05 11.7159 9.99881e-05C14.4928 9.99881e-05 17.2718 -0.00411409 20.0487 0.0064211C20.3116 0.0064211 20.5746 0.0864885 20.8918 0.137057C19.9575 1.05573 19.084 1.92172 18.2018 2.77928C15.9725 4.94742 13.7388 7.11135 11.5073 9.27528C11.2226 9.5513 10.7164 9.53444 10.4078 9.23525C9.63213 8.48514 8.85643 7.73503 8.08507 6.98072C6.55322 5.48472 5.02571 3.9824 3.49603 2.4864C2.70946 1.71734 1.92072 0.952481 1.13416 0.185519C1.12981 0.162342 1.12764 0.139164 1.12329 0.115987L1.12546 0.118094Z" fill="#B88D57"/>
<path d="M1.0908 14.8758C3.33968 12.6971 5.54294 10.5648 7.76141 8.41772C8.00912 8.65793 8.27203 8.92131 8.54363 9.17626C8.95213 9.56395 9.3541 9.95797 9.77998 10.3246C10.0646 10.569 10.4145 10.6933 10.8077 10.7123C11.3227 10.7355 11.792 10.6343 12.207 10.3309C12.2679 10.2867 12.3265 10.234 12.3809 10.1813C12.9545 9.62716 13.5281 9.07512 14.0952 8.51465C14.2147 8.39665 14.2864 8.40298 14.4038 8.51886C16.2355 10.3077 18.0737 12.0903 19.9076 13.8771C20.2226 14.1847 20.5247 14.5071 20.881 14.8737C20.566 14.92 20.2944 14.9959 20.0227 14.9959C16.6418 15.0043 13.263 15.0001 9.8821 15.0001C7.23993 15.0001 4.59776 15.0043 1.95559 14.9959C1.67746 14.9959 1.39717 14.9221 1.08862 14.8779L1.0908 14.8758Z" fill="#B88D57"/>
<path d="M0.223802 1.01758C0.493235 1.29571 0.732247 1.55277 0.982123 1.79718C2.87684 3.64084 4.77156 5.4845 6.67062 7.32394C6.80968 7.45879 6.81185 7.54097 6.67062 7.67582C4.75635 9.53001 2.84642 11.3884 0.936494 13.2468C0.701827 13.4765 0.480198 13.7188 0.223802 13.9843C0.0651852 13.683 0 13.4343 0 13.1646C0.00434568 11.8604 0 10.554 0 9.24977C0 6.78665 0 4.32141 0 1.85829C0 1.58016 0.0608395 1.32521 0.223802 1.01758Z" fill="#B88D57"/>
</g>
<defs>
<clipPath id="clip0_33_204">
<rect width="22" height="15" fill="white"/>
</clipPath>
</defs>
</svg>
