<svg width="20" height="20" viewBox="0 0 20 20" fill="none" xmlns="http://www.w3.org/2000/svg">
<path d="M4.22527 0C4.52491 0.130686 4.8321 0.251319 5.12669 0.397085C5.25007 0.457401 5.35583 0.562955 5.45403 0.66097C6.28495 1.48781 7.11335 2.31716 7.94427 3.14401C8.28167 3.47826 8.55865 3.84519 8.62663 4.33275C8.69713 4.8379 8.60397 5.30284 8.32196 5.73511C8.05506 6.13973 7.63456 6.30309 7.22162 6.48404C6.80112 6.6675 6.50653 6.98165 6.30257 7.38628C5.99287 8.00452 6.1666 8.59764 6.40329 9.18572C6.68782 9.88691 7.09321 10.5177 7.60183 11.0706C8.03743 11.5456 8.48059 12.0156 8.97159 12.4328C9.6741 13.0284 10.4496 13.521 11.3536 13.7648C11.9125 13.9156 12.4312 13.7623 12.9071 13.4556C13.2974 13.2043 13.4938 12.8173 13.66 12.4026C13.8942 11.8145 14.3449 11.4778 14.9618 11.3647C15.6844 11.2315 16.2862 11.4727 16.7948 11.9779C17.6534 12.8324 18.507 13.6919 19.3682 14.5439C19.8516 15.0214 20.0732 15.5944 19.9851 16.2654C19.9297 16.6851 19.7559 17.0721 19.4538 17.3787C18.8067 18.0397 18.1596 18.7007 17.4898 19.339C17.1196 19.6909 16.6488 19.8819 16.1427 19.9447C15.7725 19.9899 15.3873 20.0226 15.0197 19.9799C14.5262 19.9196 14.0326 19.8115 13.5593 19.6657C12.3884 19.3064 11.2982 18.7685 10.2708 18.1076C9.60611 17.6778 8.94641 17.238 8.30937 16.7705C7.86621 16.4463 7.45831 16.0694 7.04536 15.7075C6.60472 15.3204 6.16157 14.9334 5.74107 14.5212C5.35331 14.1417 4.99073 13.7346 4.62311 13.335C4.42671 13.1214 4.23283 12.9078 4.04902 12.6816C3.6814 12.2317 3.31126 11.7844 2.96127 11.3219C2.22351 10.3443 1.58647 9.30133 1.04763 8.20306C0.667422 7.429 0.377859 6.61975 0.166352 5.78537C0.0933314 5.49887 0.0832596 5.19477 0.0404547 4.89822C0.0354188 4.86554 0.0152752 4.83287 0.00268555 4.8002C0.00268555 4.56647 0.00268555 4.33275 0.00268555 4.09651C0.0152752 4.06383 0.0404547 4.03368 0.0429726 4.00101C0.0908135 3.32747 0.355197 2.75195 0.831088 2.27444C1.39762 1.70897 1.96164 1.14099 2.53322 0.580548C2.64149 0.474994 2.75983 0.36944 2.89328 0.29907C3.10479 0.185976 3.33644 0.0980146 3.56054 0C3.78211 0 4.00369 0 4.22527 0Z" fill="#B88D57"/>
</svg>
