<svg width="21" height="14" viewBox="0 0 21 14" fill="none" xmlns="http://www.w3.org/2000/svg">
<path d="M17.7752 13.9986C17.3166 13.9986 16.8553 13.9986 16.3966 13.9986C16.2346 14.0073 16.0728 13.9763 15.9208 13.9074C15.7685 13.8435 15.6209 13.7643 15.4793 13.6708C15.3105 13.5497 15.1508 13.4106 15.0022 13.2551C14.8667 13.1102 14.7377 12.9565 14.6158 12.7947C14.3845 12.4877 14.1624 12.1695 13.9324 11.8626C13.7385 11.5883 13.5299 11.3298 13.3081 11.0887C13.152 10.908 12.9585 10.7821 12.7483 10.7242C12.6991 10.7146 12.649 10.7146 12.5998 10.7242C12.4827 10.7564 12.3756 10.8285 12.2909 10.9321C12.1939 11.0333 12.1186 11.1617 12.0714 11.3062C12.0386 11.4133 11.9939 11.5156 11.9571 11.6259C11.9475 11.656 11.94 11.687 11.9348 11.7187C11.9177 11.7922 11.898 11.8674 11.8861 11.9425C11.8743 12.0176 11.8612 12.1407 11.8467 12.2383C11.8057 12.5276 11.7868 12.8209 11.7902 13.1144C11.7913 13.3054 11.7456 13.4925 11.6588 13.6516C11.6108 13.746 11.5374 13.8171 11.4511 13.8531C11.3938 13.878 11.338 13.9079 11.2842 13.9426C11.2114 13.9833 11.1317 14.0025 11.0516 13.9986C10.6819 13.9986 10.3126 13.9986 9.9437 13.9986C9.82936 13.9986 9.71502 13.9986 9.602 13.9986C9.35256 13.9848 9.10479 13.9419 8.86208 13.8707C8.81608 13.8579 8.76746 13.8547 8.72146 13.8435C8.64523 13.8259 8.57032 13.8083 8.49541 13.7859C8.36399 13.7427 8.22468 13.698 8.09062 13.65C8.01139 13.6234 7.93331 13.5919 7.85669 13.5557C7.70818 13.4821 7.5531 13.4262 7.40853 13.3383C7.19957 13.2119 6.98272 13.1032 6.7777 12.9689C6.59071 12.8556 6.41179 12.7235 6.24281 12.574C6.22567 12.5582 6.20767 12.5437 6.18892 12.5309C5.96592 12.3624 5.7549 12.1714 5.55809 11.9601C5.36095 11.7538 5.16382 11.5428 4.98377 11.3206C4.76985 11.0648 4.56885 10.7936 4.38185 10.5084C4.18997 10.2078 3.98758 9.91522 3.79701 9.61465C3.68399 9.43558 3.57754 9.25012 3.4724 9.06466C3.3436 8.83656 3.21656 8.60634 3.09127 8.37398C2.95984 8.13096 2.82842 7.89434 2.70488 7.64173C2.58134 7.38912 2.47883 7.16209 2.3553 6.93986C2.23176 6.71762 2.1529 6.50818 2.05039 6.30034C1.94788 6.09249 1.83223 5.83668 1.72709 5.60166C1.62195 5.36664 1.51681 5.12202 1.41036 4.8758C1.32625 4.68395 1.23951 4.49209 1.15671 4.29864C1.10283 4.17073 1.0542 4.03803 1.00295 3.90853C0.967462 3.819 0.930663 3.73106 0.893864 3.64153L0.788725 3.36174C0.749298 3.26422 0.711185 3.16509 0.671758 3.06596C0.632331 2.96684 0.611304 2.91568 0.583705 2.84053C0.556106 2.76539 0.517993 2.65667 0.483823 2.56554C0.352399 2.2218 0.220975 1.87966 0.0895516 1.53112C0.0373501 1.39663 0.00700442 1.25113 0.000183491 1.10264C-0.00173407 1.0347 0.0114072 0.967386 0.0382297 0.907752C0.0650522 0.848117 0.104568 0.798359 0.152635 0.763693C0.270841 0.672757 0.407091 0.622479 0.546906 0.618202C0.745356 0.600616 0.941177 0.607011 1.14357 0.607011H3.21086C3.25029 0.607011 3.29103 0.607011 3.33046 0.607011C3.48715 0.595117 3.64402 0.62683 3.78913 0.699741C3.95001 0.771637 4.08371 0.912673 4.165 1.09624C4.26882 1.32487 4.33585 1.57588 4.42785 1.80611C4.45282 1.87006 4.46596 1.94041 4.49093 2.00436C4.56321 2.19462 4.64075 2.38168 4.71435 2.57034C4.78795 2.75899 4.86812 2.98762 4.9496 3.19227C5.0048 3.33137 5.06919 3.46407 5.13096 3.59836C5.16119 3.66711 5.19142 3.73426 5.22427 3.80141C5.32941 4.02364 5.43455 4.24748 5.54232 4.46971C5.62643 4.64238 5.71054 4.81345 5.80517 4.98292C5.89979 5.1524 5.99967 5.35225 6.10087 5.53291C6.20207 5.71358 6.27829 5.85267 6.37554 5.99656C6.49534 6.18546 6.62391 6.36589 6.76062 6.53696C6.87812 6.68397 7.01897 6.80037 7.1746 6.8791C7.24779 6.91304 7.32745 6.92069 7.4041 6.90113C7.48076 6.88158 7.55118 6.83564 7.60698 6.76878C7.67406 6.67201 7.72979 6.5644 7.77258 6.44902C7.81941 6.29691 7.85719 6.14089 7.8856 5.98217C7.89156 5.95712 7.89552 5.93142 7.89743 5.90543C7.948 5.4973 7.97567 5.08546 7.98023 4.67276C7.97234 4.22669 7.98023 3.78063 7.97366 3.33616C7.97366 3.16509 7.96577 2.99402 7.95657 2.82295C7.95657 2.73661 7.93029 2.65188 7.92503 2.56554C7.91312 2.35883 7.88181 2.15445 7.83172 1.9564C7.78107 1.72744 7.67808 1.52065 7.5347 1.36005C7.45752 1.28173 7.37279 1.21516 7.28237 1.16179C7.19008 1.10698 7.09479 1.05997 6.99718 1.0211C6.9514 1.00453 6.90422 0.99434 6.85655 0.990723C6.73827 0.973136 6.72513 0.933166 6.76587 0.798867C6.81341 0.689077 6.88192 0.594772 6.96564 0.523873C7.05785 0.421131 7.16597 0.341777 7.28368 0.290449C7.40344 0.227657 7.52865 0.181532 7.65693 0.152952C7.70386 0.144959 7.75006 0.131576 7.79492 0.112982C7.94877 0.0803688 8.10416 0.0595435 8.26016 0.0506286C8.50007 0.0168257 8.74149 0.00134034 8.98299 0.00426346C9.32075 0.00426346 9.65851 -0.00532933 9.99495 0.00426346C10.2578 0.0154551 10.5206 0.0538262 10.7835 0.0889998C10.894 0.10229 11.0031 0.128526 11.1094 0.167341C11.2635 0.204255 11.4075 0.287221 11.5287 0.40876C11.6204 0.519199 11.6893 0.654537 11.7297 0.803663C11.799 1.06872 11.8323 1.34575 11.8283 1.62385C11.8283 1.80131 11.8283 1.97878 11.8283 2.15625C11.8191 2.57673 11.8047 2.99562 11.7955 3.4145C11.7863 3.83339 11.7836 4.27945 11.7771 4.71273C11.7771 4.90938 11.7679 5.10603 11.7652 5.30268C11.763 5.56099 11.7806 5.81899 11.8178 6.07331C11.8324 6.20119 11.8672 6.32443 11.9203 6.43623C11.9425 6.48341 11.9627 6.53197 11.9808 6.58172C12.0246 6.67019 12.0833 6.74645 12.1529 6.80556C12.1866 6.83743 12.2255 6.86008 12.267 6.87195C12.3085 6.88382 12.3516 6.88462 12.3934 6.8743C12.4942 6.85136 12.5881 6.79617 12.6655 6.71443C12.9229 6.4693 13.1511 6.18198 13.3436 5.86067C13.4015 5.76634 13.4645 5.67361 13.521 5.57608C13.5973 5.44498 13.6722 5.31068 13.7445 5.17638C13.8549 4.97493 13.9639 4.77348 14.0704 4.56884C14.1348 4.44573 14.1913 4.31782 14.2518 4.19312C14.3122 4.06841 14.37 3.9565 14.4266 3.83659C14.4831 3.71668 14.5488 3.56639 14.6066 3.42889C14.6644 3.29139 14.738 3.10913 14.7972 2.96044C14.8563 2.81176 14.9063 2.70304 14.9549 2.57034C15.0377 2.34491 15.1165 2.11628 15.1967 1.88765C15.2598 1.70858 15.3281 1.52792 15.386 1.34885C15.4096 1.28011 15.4346 1.21296 15.453 1.14261C15.4974 0.982931 15.5748 0.839801 15.6777 0.726921C15.6856 0.726921 15.6922 0.704538 15.7014 0.70134C15.7845 0.653557 15.8731 0.621222 15.9642 0.605412C16.118 0.605412 16.2717 0.605412 16.4268 0.605412H19.1867C19.2892 0.605412 19.3931 0.605412 19.4956 0.605412C19.5613 0.605412 19.627 0.630993 19.6914 0.643783L19.8084 0.670963C19.933 0.693257 20.0471 0.768604 20.1303 0.883603C20.1839 0.959375 20.2141 1.05548 20.2158 1.1554C20.2157 1.38516 20.1745 1.61215 20.0949 1.8205C19.995 2.10509 19.8859 2.38328 19.7716 2.65987C19.7098 2.80856 19.6296 2.94765 19.556 3.08835C19.4824 3.22904 19.3904 3.39532 19.3076 3.5488C19.2721 3.61275 19.2406 3.6799 19.2038 3.74385C19.1197 3.88775 19.033 4.03164 18.9475 4.17553C18.8621 4.31942 18.753 4.50488 18.6531 4.66796C18.4875 4.94136 18.3206 5.21155 18.1524 5.48175C18.0092 5.71038 17.8633 5.93581 17.7213 6.16444C17.5794 6.39307 17.4388 6.63129 17.2982 6.86631C17.239 6.96544 17.1786 7.06456 17.1247 7.16688C17.0192 7.35706 16.9468 7.57141 16.9118 7.79681C16.88 7.97908 16.9073 8.16925 16.988 8.32761C17.0143 8.37558 17.0274 8.43313 17.0511 8.48749C17.1344 8.63697 17.2294 8.7762 17.335 8.90318C17.4927 9.12222 17.678 9.30608 17.8501 9.50753C17.9159 9.58587 17.9895 9.65781 18.0578 9.73136L18.1156 9.79851C18.2352 9.9408 18.3561 10.0815 18.4744 10.2254C18.5664 10.3357 18.6584 10.4476 18.7478 10.5627C18.9107 10.7706 19.075 10.9768 19.2314 11.1911C19.3484 11.3509 19.4548 11.5108 19.5639 11.6835C19.7664 11.9833 19.9426 12.308 20.0896 12.6524C20.1845 12.8368 20.2304 13.0522 20.221 13.2695C20.2092 13.3787 20.1733 13.482 20.1172 13.5685C20.0352 13.7002 19.9197 13.7952 19.7886 13.8387C19.6888 13.8707 19.5941 13.9266 19.4929 13.9538C19.3996 13.9776 19.3044 13.9894 19.2091 13.989C18.7399 13.989 18.2694 13.989 17.7989 13.989L17.7752 13.9986Z" fill="#B88D57"/>
</svg>
