<svg width="13" height="13" viewBox="0 0 13 13" fill="none" xmlns="http://www.w3.org/2000/svg">
<path d="M0.00226632 12.9966C0.0600575 12.7866 0.108783 12.6105 0.156376 12.4356C0.32975 11.7989 0.500857 11.1622 0.675364 10.5255C0.749019 10.2557 0.83174 9.98811 0.903129 9.71831C0.913328 9.67992 0.890664 9.62799 0.872534 9.58622C0.698027 9.17982 0.489525 8.78358 0.354679 8.36363C0.230032 7.97416 0.17224 7.56212 0.104251 7.15797C0.0657233 6.92655 0.0464596 6.68835 0.0487259 6.45467C0.0543917 5.61252 0.216434 4.80084 0.532586 4.01739C0.786414 3.38747 1.13656 2.81625 1.56829 2.29696C2.08162 1.68058 2.70032 1.185 3.40175 0.79214C3.86408 0.533623 4.3536 0.33268 4.86693 0.207373C5.23067 0.11819 5.60688 0.0775501 5.97969 0.0346521C6.22899 0.00642977 6.48395 -0.0116325 6.73324 0.00868756C7.16498 0.0448122 7.59898 0.0933546 8.02278 0.178022C8.57463 0.287524 9.10381 0.487339 9.58994 0.769562C9.95708 0.982923 10.3106 1.22676 10.6449 1.48867C10.9146 1.7009 11.1605 1.947 11.3917 2.20213C11.8767 2.73948 12.2631 3.34683 12.5158 4.02416C12.6699 4.43621 12.79 4.86519 12.8852 5.2953C13.003 5.82588 13.0257 6.37226 12.9736 6.91075C12.926 7.3894 12.833 7.86918 12.7039 8.33315C12.5226 8.98791 12.2166 9.59638 11.8132 10.145C11.5786 10.4634 11.3214 10.7704 11.0404 11.0493C10.6064 11.4794 10.1112 11.835 9.56728 12.1251C9.10042 12.3746 8.61089 12.5597 8.10323 12.6986C7.82787 12.7742 7.54119 12.8115 7.25563 12.842C6.94514 12.8758 6.63012 12.9007 6.31851 12.8939C5.77346 12.8826 5.23747 12.7945 4.71395 12.6376C4.29128 12.5112 3.88674 12.3464 3.49127 12.1499C3.40175 12.1048 3.25444 12.1533 3.13999 12.1827C2.21986 12.4186 1.302 12.6613 0.384142 12.9007C0.266293 12.9311 0.149577 12.9616 0 13L0.00226632 12.9966ZM1.56036 11.4613C1.64988 11.4376 1.71334 11.4218 1.77566 11.4049C2.30825 11.2626 2.8397 11.1159 3.37455 10.9815C3.47087 10.9567 3.59325 10.9465 3.67824 10.9849C3.93433 11.0989 4.1723 11.2536 4.42839 11.3665C5.25673 11.7323 6.1236 11.8485 7.02673 11.7605C7.48679 11.7164 7.92759 11.6216 8.36046 11.4613C9.28059 11.1215 10.0511 10.5808 10.6744 9.82442C11.0823 9.32884 11.3973 8.78584 11.6002 8.17962C11.8279 7.4989 11.9526 6.80124 11.8699 6.08101C11.8336 5.76605 11.8019 5.44883 11.7316 5.14064C11.5401 4.30074 11.1378 3.56132 10.5667 2.91898C10.3265 2.64917 10.05 2.40533 9.76785 2.17729C9.40524 1.88491 8.99616 1.66026 8.56103 1.48754C8.10663 1.30804 7.63864 1.19177 7.15025 1.13194C6.73324 1.08001 6.31737 1.07436 5.9049 1.11952C5.44257 1.16919 4.99271 1.28885 4.55531 1.46045C3.9128 1.71219 3.34622 2.07908 2.8431 2.54193C2.49522 2.86253 2.20513 3.23394 1.9547 3.63695C1.5037 4.36396 1.23288 5.15193 1.16942 5.99973C1.13429 6.46935 1.14676 6.94461 1.24194 7.41423C1.37226 8.05206 1.59322 8.65037 1.92977 9.20805C1.99436 9.31529 2.12241 9.41125 2.08275 9.56139C1.97737 9.96327 1.86632 10.364 1.75527 10.7648C1.69294 10.9917 1.62835 11.2175 1.56036 11.4591V11.4613Z" fill="white"/>
<path d="M4.26944 3.36871C4.65276 3.36288 4.71877 3.3046 4.90406 3.76735C4.90869 3.78017 4.91217 3.79299 4.9168 3.80581C5.06735 4.17065 5.21442 4.53548 5.36845 4.89799C5.42635 5.03437 5.41129 5.1486 5.32212 5.26399C5.18663 5.44 5.06272 5.6265 4.92375 5.79901C4.84616 5.89575 4.83342 5.98784 4.90059 6.08691C5.06272 6.32703 5.21558 6.57531 5.39508 6.80143C5.68228 7.16161 6.0297 7.46001 6.42344 7.69663C6.65274 7.83417 6.89477 7.95306 7.13913 8.06146C7.34989 8.15471 7.4657 8.08944 7.65331 7.833C7.77375 7.66749 7.90924 7.51246 8.03084 7.34811C8.11537 7.23388 8.22423 7.22805 8.33425 7.277C8.73146 7.45534 9.12405 7.64184 9.51895 7.82601C9.56411 7.84699 9.60465 7.87846 9.65097 7.89478C9.80962 7.94956 9.86637 8.05097 9.86174 8.22581C9.84784 8.80512 9.53285 9.23407 8.9955 9.47302C8.6643 9.62105 8.32614 9.66534 7.98567 9.62222C7.68805 9.58492 7.39853 9.47302 7.11133 9.37744C6.52998 9.18278 5.99496 8.89488 5.51436 8.51372C5.09398 8.17919 4.70488 7.80969 4.3644 7.39007C3.98919 6.92732 3.62093 6.46224 3.3731 5.9144C3.23182 5.60202 3.13338 5.27448 3.13801 4.93063C3.14728 4.34899 3.37889 3.86176 3.8178 3.47944C3.96024 3.35472 4.13511 3.35355 4.2706 3.36871H4.26944Z" fill="white"/>
</svg>
