<svg width="14" height="14" viewBox="0 0 14 14" fill="none" xmlns="http://www.w3.org/2000/svg">
<path d="M0.00244065 13.9964C0.0646773 13.7702 0.117151 13.5806 0.168405 13.3921C0.355115 12.7065 0.539385 12.0208 0.727315 11.3351C0.806636 11.0446 0.89572 10.7564 0.972601 10.4659C0.983584 10.4245 0.959177 10.3686 0.939652 10.3236C0.751722 9.88596 0.527181 9.45924 0.381962 9.00699C0.247726 8.58756 0.18549 8.14382 0.11227 7.70859C0.070779 7.45936 0.0500334 7.20284 0.0524741 6.95119C0.0585757 6.04425 0.233082 5.17014 0.573554 4.32642C0.846907 3.64804 1.22399 3.03288 1.68893 2.47364C2.24174 1.80986 2.90804 1.27615 3.66342 0.853074C4.16132 0.574671 4.6885 0.358271 5.24131 0.223325C5.63303 0.127282 6.03818 0.0835155 6.43967 0.0373177C6.70814 0.00692437 6.98271 -0.0125273 7.25118 0.00935583C7.71613 0.0482593 8.18351 0.100536 8.63992 0.191716C9.23421 0.309642 9.80411 0.524826 10.3276 0.828759C10.723 1.05853 11.1038 1.32113 11.4638 1.60318C11.7542 1.83174 12.019 2.09677 12.2679 2.37152C12.7902 2.95021 13.2064 3.60428 13.4785 4.33371C13.6445 4.77746 13.7738 5.23944 13.8763 5.70263C14.0033 6.27402 14.0277 6.86244 13.9715 7.44234C13.9203 7.95781 13.8202 8.4745 13.6811 8.97416C13.4858 9.67929 13.1563 10.3346 12.7219 10.9254C12.4693 11.2683 12.1923 11.5989 11.8896 11.8992C11.4223 12.3624 10.889 12.7454 10.3032 13.0578C9.80045 13.3265 9.27327 13.5259 8.72656 13.6754C8.43002 13.7569 8.12128 13.797 7.81375 13.8298C7.47938 13.8663 7.14013 13.893 6.80454 13.8857C6.21757 13.8736 5.64035 13.7787 5.07656 13.6098C4.62138 13.4736 4.18572 13.2961 3.75983 13.0846C3.66342 13.0359 3.50478 13.0882 3.38153 13.1198C2.39062 13.3739 1.40216 13.6353 0.413691 13.893C0.286777 13.9258 0.161083 13.9587 0 14L0.00244065 13.9964ZM1.68039 12.343C1.7768 12.3174 1.84513 12.3004 1.91225 12.2822C2.48581 12.129 3.05814 11.9709 3.63413 11.8263C3.73786 11.7995 3.86966 11.7886 3.96118 11.8299C4.23698 11.9527 4.49324 12.1193 4.76904 12.2408C5.6611 12.6347 6.59465 12.76 7.56725 12.6651C8.0627 12.6177 8.53741 12.5156 9.00357 12.343C9.99448 11.977 10.8243 11.3947 11.4955 10.5801C11.9348 10.0464 12.274 9.46167 12.4925 8.80882C12.7378 8.07574 12.872 7.32442 12.7829 6.54878C12.7439 6.20959 12.7097 5.86797 12.634 5.53607C12.4278 4.63157 11.9946 3.83526 11.3796 3.14351C11.1208 2.85295 10.8231 2.59035 10.5192 2.34478C10.1287 2.0299 9.68818 1.78797 9.21957 1.60196C8.73022 1.40866 8.22623 1.28344 7.70026 1.21901C7.25118 1.16309 6.80332 1.15701 6.35913 1.20564C5.86123 1.25913 5.37676 1.388 4.90572 1.57279C4.21379 1.8439 3.60363 2.23901 3.0618 2.73746C2.68716 3.08273 2.37476 3.4827 2.10506 3.91672C1.61937 4.69965 1.32772 5.54823 1.25938 6.46125C1.22155 6.96699 1.23497 7.47881 1.33748 7.98456C1.47782 8.67145 1.71578 9.31579 2.07822 9.91636C2.14778 10.0319 2.28567 10.1352 2.24296 10.2969C2.12947 10.7297 2.00988 11.1613 1.89029 11.5929C1.82317 11.8372 1.75361 12.0804 1.68039 12.3405V12.343Z" fill="#B88D57"/>
<path d="M4.59766 3.62784C5.01046 3.62156 5.08155 3.5588 5.2811 4.05714C5.28608 4.07095 5.28982 4.08476 5.29481 4.09857C5.45694 4.49147 5.61533 4.88437 5.7812 5.27476C5.84356 5.42163 5.82734 5.54464 5.73131 5.66891C5.5854 5.85846 5.45195 6.05931 5.3023 6.24509C5.21874 6.34927 5.20502 6.44844 5.27735 6.55514C5.45195 6.81373 5.61658 7.0811 5.80989 7.32462C6.11918 7.7125 6.49332 8.03385 6.91735 8.28867C7.16429 8.4368 7.42494 8.56483 7.68809 8.68157C7.91507 8.782 8.03978 8.7117 8.24182 8.43554C8.37152 8.25729 8.51744 8.09034 8.64839 7.91335C8.73943 7.79033 8.85666 7.78405 8.97514 7.83677C9.40291 8.02883 9.8257 8.22968 10.251 8.42801C10.2996 8.4506 10.3433 8.4845 10.3931 8.50207C10.564 8.56107 10.6251 8.67028 10.6201 8.85857C10.6052 9.48244 10.2659 9.94438 9.68726 10.2017C9.33058 10.3611 8.96641 10.4088 8.59975 10.3624C8.27923 10.3222 7.96745 10.2017 7.65816 10.0988C7.03209 9.88915 6.45591 9.5791 5.93834 9.16862C5.48563 8.80836 5.06659 8.41044 4.69993 7.95854C4.29585 7.46019 3.89926 6.95934 3.63237 6.36936C3.48022 6.03294 3.37421 5.68021 3.3792 5.30991C3.38917 4.68352 3.6386 4.15882 4.11127 3.74709C4.26467 3.61277 4.45299 3.61152 4.59891 3.62784H4.59766Z" fill="#B88D57"/>
</svg>
